<?xml version="1.0" encoding="utf-8"?>
<!-- Generator: Adobe Illustrator 16.0.0, SVG Export Plug-In . SVG Version: 6.00 Build 0)  -->
<!DOCTYPE svg PUBLIC "-//W3C//DTD SVG 1.1//EN" "http://www.w3.org/Graphics/SVG/1.1/DTD/svg11.dtd">
<svg version="1.1" id="Layer_1" xmlns="http://www.w3.org/2000/svg" xmlns:xlink="http://www.w3.org/1999/xlink" x="0px" y="0px"
	 width="400px" height="100px" viewBox="0 0 400 100" enable-background="new 0 0 400 100" xml:space="preserve">
<g>
	<g>
		
			<line fill="none" stroke="#333333" stroke-width="0.679" stroke-miterlimit="10" x1="146.681" y1="35.505" x2="164.358" y2="35.505"/>
		<g>
			<polygon fill="#333333" points="162.451,38.02 163.519,35.505 162.451,32.991 168.411,35.505 			"/>
		</g>
	</g>
</g>
<g>
	<g>
		
			<line fill="none" stroke="#333333" stroke-width="0.679" stroke-miterlimit="10" x1="227.515" y1="35.505" x2="245.19" y2="35.505"/>
		<g>
			<polygon fill="#333333" points="243.284,38.02 244.352,35.505 243.284,32.991 249.244,35.505 			"/>
		</g>
	</g>
</g>
<g>
	<g>
		
			<line fill="none" stroke="#333333" stroke-width="0.679" stroke-miterlimit="10" x1="308.349" y1="36.185" x2="326.025" y2="36.185"/>
		<g>
			<polygon fill="#333333" points="324.119,38.699 325.188,36.185 324.119,33.67 330.079,36.185 			"/>
		</g>
	</g>
</g>
<g>
	<path fill="#333333" d="M47.817,19.91c-2.948-2.949-7.022-4.773-11.521-4.773s-8.574,1.824-11.521,4.773
		C21.825,22.858,20,26.932,20,31.432s1.825,8.574,4.774,11.522c2.948,2.95,7.022,4.773,11.521,4.773v8.148l11.521-12.244
		c2.949-3.122,4.774-7.436,4.774-12.2C52.591,26.932,50.766,22.858,47.817,19.91z M46.828,42.701l-9.174,9.75v-4.723v-1.358h-1.358
		c-3.99,0-7.741-1.554-10.562-4.375c-2.822-2.822-4.376-6.572-4.376-10.562c0-3.989,1.554-7.74,4.376-10.562
		c2.82-2.822,6.571-4.375,10.561-4.375c3.99,0,7.741,1.554,10.561,4.376c2.822,2.821,4.376,6.572,4.376,10.562
		C51.233,35.692,49.669,39.693,46.828,42.701z"/>
	<circle fill="#333333" cx="36.295" cy="31.432" r="2.037"/>
	<circle fill="#333333" cx="43.085" cy="31.432" r="2.037"/>
	<circle fill="#333333" cx="29.505" cy="31.432" r="2.037"/>
</g>
<text transform="matrix(1 0 0 1 11.8213 73.8682)" font-family="'MyriadPro-Bold'" font-size="7">PERSON SPEAKS</text>
<g>
	<path fill="#333333" d="M117.129,45.011c5.249,0,9.506-4.256,9.506-9.506V32.79v-1.358v-2.716v-1.358v-2.716
		c0-5.25-4.257-9.506-9.506-9.506s-9.506,4.256-9.506,9.506v2.716v1.358v2.716v1.358v2.716
		C107.623,40.755,111.88,45.011,117.129,45.011z M113.055,32.79h-4.074v-1.358h4.074c0.75,0,1.358-0.608,1.358-1.358
		s-0.607-1.358-1.358-1.358h-4.074v-1.358h4.074c0.75,0,1.358-0.608,1.358-1.358s-0.607-1.358-1.358-1.358h-4.074
		c0-4.493,3.655-8.148,8.148-8.148s8.148,3.655,8.148,8.148h-4.074c-0.75,0-1.358,0.608-1.358,1.358s0.607,1.358,1.358,1.358h4.074
		v1.358h-4.074c-0.75,0-1.358,0.608-1.358,1.358s0.607,1.358,1.358,1.358h4.074v1.358h-4.074c-0.75,0-1.358,0.608-1.358,1.358
		s0.607,1.358,1.358,1.358h4.074c0,4.493-3.655,8.148-8.148,8.148s-8.148-3.655-8.148-8.148h4.074c0.75,0,1.358-0.608,1.358-1.358
		S113.806,32.79,113.055,32.79z"/>
	<path fill="#333333" d="M130.029,35.505h-1.358c0,6.365-5.178,11.543-11.542,11.543s-11.542-5.178-11.542-11.543h-1.358
		c0,6.886,5.422,12.528,12.221,12.883v6.128h-4.752v1.358h4.752h1.358h4.752v-1.358h-4.752v-6.128
		C124.607,48.034,130.029,42.391,130.029,35.505z"/>
</g>
<text transform="matrix(1 0 0 1 92.2759 73.8682)"><tspan x="0" y="0" font-family="'MyriadPro-Bold'" font-size="7">PHONE, WATCH, </tspan><tspan x="0" y="8.4" font-family="'MyriadPro-Bold'" font-size="7">OR WEBPAGE </tspan><tspan x="0" y="16.8" font-family="'MyriadPro-Bold'" font-size="7">LISTENS</tspan></text>
<g>
	<path fill="#333333" d="M200.679,15.136h-1.358h-14.938v40.739h27.16V27.358V26L200.679,15.136z M210.185,54.517h-24.443V16.494
		h13.58v10.864h10.864V54.517z"/>
	<rect x="189.815" y="31.432" fill="#333333" width="16.295" height="1.358"/>
	<rect x="189.815" y="34.147" fill="#333333" width="16.295" height="1.358"/>
	<rect x="189.815" y="36.864" fill="#333333" width="8.148" height="1.358"/>
</g>
<path fill="#333333" d="M299.166,33.808h-1.474c-0.646-3.853-3.999-6.79-8.032-6.79c-1.841,0-3.541,0.612-4.906,1.644l-0.072-0.061
	c-1.626-1.458-3.716-2.262-5.885-2.262s-4.259,0.804-5.871,2.25l-0.088,0.073c-1.365-1.032-3.063-1.644-4.905-1.644
	c-4.033,0-7.385,2.937-8.033,6.79h-1.473v2.716h1.473c0.648,3.853,4,6.79,8.033,6.79c4.496,0,8.148-3.648,8.148-8.148
	c0-2.163-0.847-4.128-2.223-5.587c1.371-1.213,3.122-1.882,4.938-1.882c1.81,0,3.555,0.665,4.937,1.882
	c-1.376,1.459-2.221,3.423-2.221,5.586c0,4.5,3.652,8.148,8.147,8.148c4.033,0,7.386-2.937,8.032-6.79h1.474V33.808z
	 M267.933,40.598c-2.995,0-5.432-2.437-5.432-5.432s2.437-5.432,5.432-5.432s5.433,2.437,5.433,5.432S270.928,40.598,267.933,40.598
	z M289.66,40.598c-2.995,0-5.432-2.437-5.432-5.432s2.437-5.432,5.432-5.432s5.432,2.437,5.432,5.432S292.655,40.598,289.66,40.598z
	"/>
<text transform="matrix(1 0 0 1 254.1611 75.2266)" font-family="'MyriadPro-Bold'" font-size="7">TONE ANALYSIS</text>
<g>
	<polygon fill="#333333" points="340.619,49.764 340.619,21.247 339.261,21.247 339.261,49.764 339.261,51.122 340.619,51.122 
		380,51.122 380,49.764 	"/>
	<rect x="343.335" y="36.185" fill="#333333" width="9.506" height="10.864"/>
	<path fill="#333333" d="M365.062,25.321h-9.506v21.728h9.506V25.321z M363.704,45.69h-6.79V26.679h6.79V45.69z"/>
	<rect x="367.778" y="32.111" fill="#333333" width="9.505" height="1.358"/>
	<rect x="367.778" y="34.827" fill="#333333" width="9.505" height="1.358"/>
	<rect x="367.778" y="37.542" fill="#333333" width="9.505" height="1.358"/>
	<rect x="367.778" y="40.258" fill="#333333" width="9.505" height="1.358"/>
	<rect x="367.778" y="42.974" fill="#333333" width="9.505" height="1.358"/>
	<rect x="367.778" y="45.69" fill="#333333" width="9.505" height="1.358"/>
</g>
<text transform="matrix(1 0 0 1 334.9941 75.2266)" font-family="'MyriadPro-Bold'" font-size="7">EMOTION LEVEL</text>
<g>
	<g>
		
			<line fill="none" stroke="#333333" stroke-width="0.679" stroke-miterlimit="10" x1="65.847" y1="35.505" x2="83.524" y2="35.505"/>
		<g>
			<polygon fill="#333333" points="81.617,38.02 82.686,35.505 81.617,32.991 87.578,35.505 			"/>
		</g>
	</g>
</g>
<text transform="matrix(1 0 0 1 172.6499 75.2266)" font-family="'MyriadPro-Bold'" font-size="7">SPEECH TO TEXT</text>
</svg>
