<?xml version="1.0" encoding="utf-8"?>
<!-- Generator: Adobe Illustrator 16.0.0, SVG Export Plug-In . SVG Version: 6.00 Build 0)  -->
<!DOCTYPE svg PUBLIC "-//W3C//DTD SVG 1.1//EN" "http://www.w3.org/Graphics/SVG/1.1/DTD/svg11.dtd">
<svg version="1.1" id="Layer_1" xmlns="http://www.w3.org/2000/svg" xmlns:xlink="http://www.w3.org/1999/xlink" x="0px" y="0px"
	 width="200px" height="50px" viewBox="0 0 200 50" enable-background="new 0 0 200 50" xml:space="preserve">
<g>
	<g>
		<path fill="#787878" d="M21.503,24.999c0,1.468,0.267,2.935,0.8,4.269c0.533,1.332,1.333,2.533,2.4,3.467
			c0.267,0.266,0.4,0.4,0.667,0.666V16.732c-0.267,0.134-0.4,0.4-0.667,0.667c-1.067,1.066-1.733,2.133-2.4,3.467
			C21.77,22.066,21.503,23.532,21.503,24.999z"/>
		<path fill="#787878" d="M40.169,17.266c-1.066-1.066-2.133-1.733-3.466-2.399c-1.334-0.534-2.8-0.8-4.267-0.8
			c-1.334,0-2.534,0.266-3.733,0.666l14.533,8.4c-0.134-0.801-0.399-1.601-0.667-2.4C41.904,19.399,41.237,18.199,40.169,17.266z"/>
		<path fill="#787878" d="M27.37,15.266L27.37,15.266l5.333,9.2H43.37c0-0.134,0-0.267,0-0.399l-15.733-8.934
			C27.637,15.266,27.503,15.266,27.37,15.266z"/>
		<path fill="#787878" d="M43.37,25.399L43.37,25.399H32.704l0,0l-5.333,9.2l0,0c0.133,0,0.267,0.135,0.267,0.135l15.6-9.069
			C43.37,25.665,43.37,25.532,43.37,25.399z"/>
		<path fill="#787878" d="M36.704,35c1.333-0.533,2.533-1.334,3.466-2.4c1.067-1.066,1.734-2.133,2.4-3.465
			c0.268-0.801,0.533-1.602,0.667-2.402l-14.533,8.402c1.2,0.398,2.399,0.666,3.733,0.666C33.904,35.934,35.37,35.666,36.704,35z"/>
		<path fill="#787878" d="M31.904,24.999L31.904,24.999L31.904,24.999l-5.333-9.2l0,0l-0.267,0.134v18.001
			c0.133,0,0.133,0.133,0.267,0.133l0,0L31.904,24.999z"/>
		<path fill="#5B6565" d="M32.704,25.399L32.704,25.399L32.704,25.399z"/>
		<path fill="#787878" d="M32.437,13.266c6,0,11.066,4.533,11.732,10.4c0,0.133,0,0.267,0,0.533l0,0l5.334-9.333l-5.6-9.733h-11.2
			l-5.467,9.333c0.267-0.134,0.4-0.267,0.533-0.267C29.237,13.532,30.837,13.266,32.437,13.266z"/>
		<rect x="27.37" y="35.533" fill="#5B6565" width="0" height="0.4"/>
		<path fill="#787878" d="M44.169,25.799L44.169,25.799c0,0.134,0,0.4,0,0.535c-0.666,5.867-5.6,10.4-11.732,10.4
			c-1.6,0-3.2-0.4-4.667-0.934c-0.133-0.135-0.267-0.135-0.533-0.268l5.333,9.334h11.2l5.6-9.732L44.169,25.799z"/>
		<path fill="#787878" d="M25.903,15.266h-10.8l-5.6,9.733l5.6,9.735h10.8l0,0c-0.133-0.135-0.267-0.135-0.4-0.268
			c-2.933-2.133-4.667-5.6-4.667-9.468c0-3.866,1.867-7.333,4.667-9.467C25.503,15.399,25.77,15.266,25.903,15.266z"/>
	</g>
	<text transform="matrix(1 0 0 1 59.938 32.043)"><tspan x="0" y="0" fill="#787878" font-family="'MyriadPro-Regular'" font-size="24">IBM </tspan><tspan x="43.127" y="0" fill="#787878" font-family="'MyriadPro-Bold'" font-size="24">Bluemix</tspan></text>
</g>
</svg>
