<?xml version="1.0" encoding="utf-8"?>
<!-- Generator: Adobe Illustrator 16.0.0, SVG Export Plug-In . SVG Version: 6.00 Build 0)  -->
<!DOCTYPE svg PUBLIC "-//W3C//DTD SVG 1.1//EN" "http://www.w3.org/Graphics/SVG/1.1/DTD/svg11.dtd">
<svg version="1.1" id="Layer_1" xmlns="http://www.w3.org/2000/svg" xmlns:xlink="http://www.w3.org/1999/xlink" x="0px" y="0px"
	 width="500px" height="500px" viewBox="0 0 500 500" enable-background="new 0 0 500 500" xml:space="preserve">
<path fill="#FFFFFF" stroke="#005284" stroke-width="10" stroke-miterlimit="10" d="M-1021,490c0,5.523-4.477,10-10,10h-380
	c-5.522,0-10-4.477-10-10V110c0-5.522,4.478-10,10-10h380c5.523,0,10,4.478,10,10V490z"/>
<path fill="#FFFFFF" stroke="#005284" stroke-width="10" stroke-miterlimit="10" d="M-1041,210.159c0,5.523-4.477,10-10,10h-340
	c-5.523,0-10-4.477-10-10v-80c0-5.523,4.477-10,10-10h340c5.523,0,10,4.477,10,10V210.159z"/>
<path fill="#FFFFFF" stroke="#005284" stroke-width="10" stroke-miterlimit="10" d="M-1221,469.326c0,5.521-4.478,10-10,10h-160
	c-5.523,0-10-4.479-10-10v-220c0-5.522,4.477-10,10-10h160c5.522,0,10,4.478,10,10V469.326z"/>
<g>
	<circle fill="#005284" cx="-1386.139" cy="251" r="2.5"/>
	<circle fill="#005284" cx="-1386.139" cy="261" r="2.5"/>
	<circle fill="#005284" cx="-1376.139" cy="251" r="2.5"/>
	<circle fill="#005284" cx="-1376.139" cy="261" r="2.5"/>
	<circle fill="#005284" cx="-1365.421" cy="251" r="2.5"/>
	<circle fill="#005284" cx="-1365.421" cy="261" r="2.5"/>
	<circle fill="#005284" cx="-1355.421" cy="251" r="2.5"/>
	<circle fill="#005284" cx="-1355.421" cy="261" r="2.5"/>
	<circle fill="#005284" cx="-1345.421" cy="251" r="2.5"/>
	<circle fill="#005284" cx="-1345.421" cy="261" r="2.5"/>
	<circle fill="#005284" cx="-1335.421" cy="251" r="2.5"/>
	<circle fill="#005284" cx="-1335.421" cy="261" r="2.5"/>
	<circle fill="#005284" cx="-1324.703" cy="251" r="2.5"/>
	<circle fill="#005284" cx="-1324.703" cy="261" r="2.5"/>
	<circle fill="#005284" cx="-1314.703" cy="251" r="2.5"/>
	<circle fill="#005284" cx="-1314.703" cy="261" r="2.5"/>
	<circle fill="#005284" cx="-1304.356" cy="251" r="2.5"/>
	<circle fill="#005284" cx="-1304.356" cy="261" r="2.5"/>
	<circle fill="#005284" cx="-1294.356" cy="251" r="2.5"/>
	<circle fill="#005284" cx="-1294.356" cy="261" r="2.5"/>
	<circle fill="#005284" cx="-1283.639" cy="251" r="2.5"/>
	<circle fill="#005284" cx="-1283.639" cy="261" r="2.5"/>
	<circle fill="#005284" cx="-1273.639" cy="251" r="2.5"/>
	<circle fill="#005284" cx="-1273.639" cy="261" r="2.5"/>
	<circle fill="#005284" cx="-1263.639" cy="251" r="2.5"/>
	<circle fill="#005284" cx="-1263.639" cy="261" r="2.5"/>
	<circle fill="#005284" cx="-1253.639" cy="251" r="2.5"/>
	<circle fill="#005284" cx="-1253.639" cy="261" r="2.5"/>
	<circle fill="#005284" cx="-1242.921" cy="251" r="2.5"/>
	<circle fill="#005284" cx="-1242.921" cy="261" r="2.5"/>
	<circle fill="#005284" cx="-1232.921" cy="251" r="2.5"/>
	<circle fill="#005284" cx="-1232.921" cy="261" r="2.5"/>
	<circle fill="#005284" cx="-1386.099" cy="272" r="2.5"/>
	<circle fill="#005284" cx="-1386.099" cy="282" r="2.5"/>
	<circle fill="#005284" cx="-1376.099" cy="272" r="2.5"/>
	<circle fill="#005284" cx="-1376.099" cy="282" r="2.5"/>
	<circle fill="#005284" cx="-1365.381" cy="272" r="2.5"/>
	<circle fill="#005284" cx="-1365.381" cy="282" r="2.5"/>
	<circle fill="#005284" cx="-1355.381" cy="272" r="2.5"/>
	<circle fill="#005284" cx="-1355.381" cy="282" r="2.5"/>
	<circle fill="#005284" cx="-1345.381" cy="272" r="2.5"/>
	<circle fill="#005284" cx="-1345.381" cy="282" r="2.5"/>
	<circle fill="#005284" cx="-1335.381" cy="272" r="2.5"/>
	<circle fill="#005284" cx="-1335.381" cy="282" r="2.5"/>
	<circle fill="#005284" cx="-1324.663" cy="272" r="2.5"/>
	<circle fill="#005284" cx="-1324.663" cy="282" r="2.5"/>
	<circle fill="#005284" cx="-1314.663" cy="272" r="2.5"/>
	<circle fill="#005284" cx="-1314.663" cy="282" r="2.5"/>
	<circle fill="#005284" cx="-1304.316" cy="272" r="2.5"/>
	<circle fill="#005284" cx="-1304.316" cy="282" r="2.5"/>
	<circle fill="#005284" cx="-1294.316" cy="272" r="2.5"/>
	<circle fill="#005284" cx="-1294.316" cy="282" r="2.5"/>
	<circle fill="#005284" cx="-1283.599" cy="272" r="2.5"/>
	<circle fill="#005284" cx="-1283.599" cy="282" r="2.5"/>
	<circle fill="#005284" cx="-1273.599" cy="272" r="2.5"/>
	<circle fill="#005284" cx="-1273.599" cy="282" r="2.5"/>
	<circle fill="#005284" cx="-1263.599" cy="272" r="2.5"/>
	<circle fill="#005284" cx="-1263.599" cy="282" r="2.5"/>
	<circle fill="#005284" cx="-1253.599" cy="272" r="2.5"/>
	<circle fill="#005284" cx="-1253.599" cy="282" r="2.5"/>
	<circle fill="#005284" cx="-1242.881" cy="272" r="2.5"/>
	<circle fill="#005284" cx="-1242.881" cy="282" r="2.5"/>
	<circle fill="#005284" cx="-1232.881" cy="272" r="2.5"/>
	<circle fill="#005284" cx="-1232.881" cy="282" r="2.5"/>
	<circle fill="#005284" cx="-1386.792" cy="292.5" r="2.5"/>
	<circle fill="#005284" cx="-1386.792" cy="302.5" r="2.5"/>
	<circle fill="#005284" cx="-1376.792" cy="292.5" r="2.5"/>
	<circle fill="#005284" cx="-1376.792" cy="302.5" r="2.5"/>
	<circle fill="#005284" cx="-1366.074" cy="292.5" r="2.5"/>
	<circle fill="#005284" cx="-1366.074" cy="302.5" r="2.5"/>
	<circle fill="#005284" cx="-1356.074" cy="292.5" r="2.5"/>
	<circle fill="#005284" cx="-1356.074" cy="302.5" r="2.5"/>
	<circle fill="#005284" cx="-1346.074" cy="292.5" r="2.5"/>
	<circle fill="#005284" cx="-1346.074" cy="302.5" r="2.5"/>
	<circle fill="#005284" cx="-1336.074" cy="292.5" r="2.5"/>
	<circle fill="#005284" cx="-1336.074" cy="302.5" r="2.5"/>
	<circle fill="#005284" cx="-1325.356" cy="292.5" r="2.5"/>
	<circle fill="#005284" cx="-1325.356" cy="302.5" r="2.5"/>
	<circle fill="#005284" cx="-1315.356" cy="292.5" r="2.5"/>
	<circle fill="#005284" cx="-1315.356" cy="302.5" r="2.5"/>
	<circle fill="#005284" cx="-1305.01" cy="292.5" r="2.5"/>
	<circle fill="#005284" cx="-1305.01" cy="302.5" r="2.5"/>
	<circle fill="#005284" cx="-1295.01" cy="292.5" r="2.5"/>
	<circle fill="#005284" cx="-1295.01" cy="302.5" r="2.5"/>
	<circle fill="#005284" cx="-1284.292" cy="292.5" r="2.5"/>
	<circle fill="#005284" cx="-1284.292" cy="302.5" r="2.5"/>
	<circle fill="#005284" cx="-1274.292" cy="292.5" r="2.5"/>
	<circle fill="#005284" cx="-1274.292" cy="302.5" r="2.5"/>
	<circle fill="#005284" cx="-1264.292" cy="292.5" r="2.5"/>
	<circle fill="#005284" cx="-1264.292" cy="302.5" r="2.5"/>
	<circle fill="#005284" cx="-1254.292" cy="292.5" r="2.5"/>
	<circle fill="#005284" cx="-1254.292" cy="302.5" r="2.5"/>
	<circle fill="#005284" cx="-1243.574" cy="292.5" r="2.5"/>
	<circle fill="#005284" cx="-1243.574" cy="302.5" r="2.5"/>
	<circle fill="#005284" cx="-1233.574" cy="292.5" r="2.5"/>
	<circle fill="#005284" cx="-1233.574" cy="302.5" r="2.5"/>
	<circle fill="#005284" cx="-1386.752" cy="313.5" r="2.5"/>
	<circle fill="#005284" cx="-1386.752" cy="323.5" r="2.5"/>
	<circle fill="#005284" cx="-1376.752" cy="313.5" r="2.5"/>
	<circle fill="#005284" cx="-1376.752" cy="323.5" r="2.5"/>
	<circle fill="#005284" cx="-1366.034" cy="313.5" r="2.5"/>
	<circle fill="#005284" cx="-1366.034" cy="323.5" r="2.5"/>
	<circle fill="#005284" cx="-1356.034" cy="313.5" r="2.5"/>
	<circle fill="#005284" cx="-1356.034" cy="323.5" r="2.5"/>
	<circle fill="#005284" cx="-1346.034" cy="313.5" r="2.5"/>
	<circle fill="#005284" cx="-1346.034" cy="323.5" r="2.5"/>
	<circle fill="#005284" cx="-1336.034" cy="313.5" r="2.5"/>
	<circle fill="#005284" cx="-1336.034" cy="323.5" r="2.5"/>
	<circle fill="#005284" cx="-1325.316" cy="313.5" r="2.5"/>
	<circle fill="#005284" cx="-1325.316" cy="323.5" r="2.5"/>
	<circle fill="#005284" cx="-1315.316" cy="313.5" r="2.5"/>
	<circle fill="#005284" cx="-1315.316" cy="323.5" r="2.5"/>
	<circle fill="#005284" cx="-1304.97" cy="313.5" r="2.5"/>
	<circle fill="#005284" cx="-1304.97" cy="323.5" r="2.5"/>
	<circle fill="#005284" cx="-1294.97" cy="313.5" r="2.5"/>
	<circle fill="#005284" cx="-1294.97" cy="323.5" r="2.5"/>
	<circle fill="#005284" cx="-1284.252" cy="313.5" r="2.5"/>
	<circle fill="#005284" cx="-1284.252" cy="323.5" r="2.5"/>
	<circle fill="#005284" cx="-1274.252" cy="313.5" r="2.5"/>
	<circle fill="#005284" cx="-1274.252" cy="323.5" r="2.5"/>
	<circle fill="#005284" cx="-1264.252" cy="313.5" r="2.5"/>
	<circle fill="#005284" cx="-1264.252" cy="323.5" r="2.5"/>
	<circle fill="#005284" cx="-1254.252" cy="313.5" r="2.5"/>
	<circle fill="#005284" cx="-1254.252" cy="323.5" r="2.5"/>
	<circle fill="#005284" cx="-1243.534" cy="313.5" r="2.5"/>
	<circle fill="#005284" cx="-1243.534" cy="323.5" r="2.5"/>
	<circle fill="#005284" cx="-1233.534" cy="313.5" r="2.5"/>
	<circle fill="#005284" cx="-1233.534" cy="323.5" r="2.5"/>
	<circle fill="#005284" cx="-1387.466" cy="334.5" r="2.5"/>
	<circle fill="#005284" cx="-1387.466" cy="344.5" r="2.5"/>
	<circle fill="#005284" cx="-1377.466" cy="334.5" r="2.5"/>
	<circle fill="#005284" cx="-1377.466" cy="344.5" r="2.5"/>
	<circle fill="#005284" cx="-1366.748" cy="334.5" r="2.5"/>
	<circle fill="#005284" cx="-1366.748" cy="344.5" r="2.5"/>
	<circle fill="#005284" cx="-1356.748" cy="334.5" r="2.5"/>
	<circle fill="#005284" cx="-1356.748" cy="344.5" r="2.5"/>
	<circle fill="#005284" cx="-1346.748" cy="334.5" r="2.5"/>
	<circle fill="#005284" cx="-1346.748" cy="344.5" r="2.5"/>
	<circle fill="#005284" cx="-1336.748" cy="334.5" r="2.5"/>
	<circle fill="#005284" cx="-1336.748" cy="344.5" r="2.5"/>
	<circle fill="#005284" cx="-1326.03" cy="334.5" r="2.5"/>
	<circle fill="#005284" cx="-1326.03" cy="344.5" r="2.5"/>
	<circle fill="#005284" cx="-1316.03" cy="334.5" r="2.5"/>
	<circle fill="#005284" cx="-1316.03" cy="344.5" r="2.5"/>
	<circle fill="#005284" cx="-1305.684" cy="334.5" r="2.5"/>
	<circle fill="#005284" cx="-1305.684" cy="344.5" r="2.5"/>
	<circle fill="#005284" cx="-1295.684" cy="334.5" r="2.5"/>
	<circle fill="#005284" cx="-1295.684" cy="344.5" r="2.5"/>
	<circle fill="#005284" cx="-1284.966" cy="334.5" r="2.5"/>
	<circle fill="#005284" cx="-1284.966" cy="344.5" r="2.5"/>
	<circle fill="#005284" cx="-1274.966" cy="334.5" r="2.5"/>
	<circle fill="#005284" cx="-1274.966" cy="344.5" r="2.5"/>
	<circle fill="#005284" cx="-1264.966" cy="334.5" r="2.5"/>
	<circle fill="#005284" cx="-1264.966" cy="344.5" r="2.5"/>
	<circle fill="#005284" cx="-1254.966" cy="334.5" r="2.5"/>
	<circle fill="#005284" cx="-1254.966" cy="344.5" r="2.5"/>
	<circle fill="#005284" cx="-1244.248" cy="334.5" r="2.5"/>
	<circle fill="#005284" cx="-1244.248" cy="344.5" r="2.5"/>
	<circle fill="#005284" cx="-1234.248" cy="334.5" r="2.5"/>
	<circle fill="#005284" cx="-1234.248" cy="344.5" r="2.5"/>
	<circle fill="#005284" cx="-1387.426" cy="355.5" r="2.5"/>
	<circle fill="#005284" cx="-1387.426" cy="365.5" r="2.5"/>
	<circle fill="#005284" cx="-1377.426" cy="355.5" r="2.5"/>
	<circle fill="#005284" cx="-1377.426" cy="365.5" r="2.5"/>
	<circle fill="#005284" cx="-1366.708" cy="355.5" r="2.5"/>
	<circle fill="#005284" cx="-1366.708" cy="365.5" r="2.5"/>
	<circle fill="#005284" cx="-1356.708" cy="355.5" r="2.5"/>
	<circle fill="#005284" cx="-1356.708" cy="365.5" r="2.5"/>
	<circle fill="#005284" cx="-1346.708" cy="355.5" r="2.5"/>
	<circle fill="#005284" cx="-1346.708" cy="365.5" r="2.5"/>
	<circle fill="#005284" cx="-1336.708" cy="355.5" r="2.5"/>
	<circle fill="#005284" cx="-1336.708" cy="365.5" r="2.5"/>
	<circle fill="#005284" cx="-1325.99" cy="355.5" r="2.5"/>
	<circle fill="#005284" cx="-1325.99" cy="365.5" r="2.5"/>
	<circle fill="#005284" cx="-1315.99" cy="355.5" r="2.5"/>
	<circle fill="#005284" cx="-1315.99" cy="365.5" r="2.5"/>
	<circle fill="#005284" cx="-1305.644" cy="355.5" r="2.5"/>
	<circle fill="#005284" cx="-1305.644" cy="365.5" r="2.5"/>
	<circle fill="#005284" cx="-1295.644" cy="355.5" r="2.5"/>
	<circle fill="#005284" cx="-1295.644" cy="365.5" r="2.5"/>
	<circle fill="#005284" cx="-1284.926" cy="355.5" r="2.5"/>
	<circle fill="#005284" cx="-1284.926" cy="365.5" r="2.5"/>
	<circle fill="#005284" cx="-1274.926" cy="355.5" r="2.5"/>
	<circle fill="#005284" cx="-1274.926" cy="365.5" r="2.5"/>
	<circle fill="#005284" cx="-1264.926" cy="355.5" r="2.5"/>
	<circle fill="#005284" cx="-1264.926" cy="365.5" r="2.5"/>
	<circle fill="#005284" cx="-1254.926" cy="355.5" r="2.5"/>
	<circle fill="#005284" cx="-1254.926" cy="365.5" r="2.5"/>
	<circle fill="#005284" cx="-1244.208" cy="355.5" r="2.5"/>
	<circle fill="#005284" cx="-1244.208" cy="365.5" r="2.5"/>
	<circle fill="#005284" cx="-1234.208" cy="355.5" r="2.5"/>
	<circle fill="#005284" cx="-1234.208" cy="365.5" r="2.5"/>
	<circle fill="#005284" cx="-1388.119" cy="376" r="2.5"/>
	<circle fill="#005284" cx="-1388.119" cy="386" r="2.5"/>
	<circle fill="#005284" cx="-1378.119" cy="376" r="2.5"/>
	<circle fill="#005284" cx="-1378.119" cy="386" r="2.5"/>
	<circle fill="#005284" cx="-1367.401" cy="376" r="2.5"/>
	<circle fill="#005284" cx="-1367.401" cy="386" r="2.5"/>
	<circle fill="#005284" cx="-1357.401" cy="376" r="2.5"/>
	<circle fill="#005284" cx="-1357.401" cy="386" r="2.5"/>
	<circle fill="#005284" cx="-1347.401" cy="376" r="2.5"/>
	<circle fill="#005284" cx="-1347.401" cy="386" r="2.5"/>
	<circle fill="#005284" cx="-1337.401" cy="376" r="2.5"/>
	<circle fill="#005284" cx="-1337.401" cy="386" r="2.5"/>
	<circle fill="#005284" cx="-1326.684" cy="376" r="2.5"/>
	<circle fill="#005284" cx="-1326.684" cy="386" r="2.5"/>
	<circle fill="#005284" cx="-1316.684" cy="376" r="2.5"/>
	<circle fill="#005284" cx="-1316.684" cy="386" r="2.5"/>
	<circle fill="#005284" cx="-1306.337" cy="376" r="2.5"/>
	<circle fill="#005284" cx="-1306.337" cy="386" r="2.5"/>
	<circle fill="#005284" cx="-1296.337" cy="376" r="2.5"/>
	<circle fill="#005284" cx="-1296.337" cy="386" r="2.5"/>
	<circle fill="#005284" cx="-1285.619" cy="376" r="2.5"/>
	<circle fill="#005284" cx="-1285.619" cy="386" r="2.5"/>
	<circle fill="#005284" cx="-1275.619" cy="376" r="2.5"/>
	<circle fill="#005284" cx="-1275.619" cy="386" r="2.5"/>
	<circle fill="#005284" cx="-1265.619" cy="376" r="2.5"/>
	<circle fill="#005284" cx="-1265.619" cy="386" r="2.5"/>
	<circle fill="#005284" cx="-1255.619" cy="376" r="2.5"/>
	<circle fill="#005284" cx="-1255.619" cy="386" r="2.5"/>
	<circle fill="#005284" cx="-1244.901" cy="376" r="2.5"/>
	<circle fill="#005284" cx="-1244.901" cy="386" r="2.5"/>
	<circle fill="#005284" cx="-1234.901" cy="376" r="2.5"/>
	<circle fill="#005284" cx="-1234.901" cy="386" r="2.5"/>
	<circle fill="#005284" cx="-1388.079" cy="397" r="2.5"/>
	<circle fill="#005284" cx="-1388.079" cy="407" r="2.5"/>
	<circle fill="#005284" cx="-1378.079" cy="397" r="2.5"/>
	<circle fill="#005284" cx="-1378.079" cy="407" r="2.5"/>
	<circle fill="#005284" cx="-1367.361" cy="397" r="2.5"/>
	<circle fill="#005284" cx="-1367.361" cy="407" r="2.5"/>
	<circle fill="#005284" cx="-1357.361" cy="397" r="2.5"/>
	<circle fill="#005284" cx="-1357.361" cy="407" r="2.5"/>
	<circle fill="#005284" cx="-1347.361" cy="397" r="2.5"/>
	<circle fill="#005284" cx="-1347.361" cy="407" r="2.5"/>
	<circle fill="#005284" cx="-1337.361" cy="397" r="2.5"/>
	<circle fill="#005284" cx="-1337.361" cy="407" r="2.5"/>
	<circle fill="#005284" cx="-1326.644" cy="397" r="2.5"/>
	<circle fill="#005284" cx="-1326.644" cy="407" r="2.5"/>
	<circle fill="#005284" cx="-1316.644" cy="397" r="2.5"/>
	<circle fill="#005284" cx="-1316.644" cy="407" r="2.5"/>
	<circle fill="#005284" cx="-1306.297" cy="397" r="2.5"/>
	<circle fill="#005284" cx="-1306.297" cy="407" r="2.5"/>
	<circle fill="#005284" cx="-1296.297" cy="397" r="2.5"/>
	<circle fill="#005284" cx="-1296.297" cy="407" r="2.5"/>
	<circle fill="#005284" cx="-1285.579" cy="397" r="2.5"/>
	<circle fill="#005284" cx="-1285.579" cy="407" r="2.5"/>
	<circle fill="#005284" cx="-1275.579" cy="397" r="2.5"/>
	<circle fill="#005284" cx="-1275.579" cy="407" r="2.5"/>
	<circle fill="#005284" cx="-1265.579" cy="397" r="2.5"/>
	<circle fill="#005284" cx="-1265.579" cy="407" r="2.5"/>
	<circle fill="#005284" cx="-1255.579" cy="397" r="2.5"/>
	<circle fill="#005284" cx="-1255.579" cy="407" r="2.5"/>
	<circle fill="#005284" cx="-1244.861" cy="397" r="2.5"/>
	<circle fill="#005284" cx="-1244.861" cy="407" r="2.5"/>
	<circle fill="#005284" cx="-1234.861" cy="397" r="2.5"/>
	<circle fill="#005284" cx="-1234.861" cy="407" r="2.5"/>
	<circle fill="#005284" cx="-1388.466" cy="416.152" r="2.5"/>
	<circle fill="#005284" cx="-1388.466" cy="426.152" r="2.5"/>
	<circle fill="#005284" cx="-1378.466" cy="416.152" r="2.5"/>
	<circle fill="#005284" cx="-1378.466" cy="426.152" r="2.5"/>
	<circle fill="#005284" cx="-1367.748" cy="416.152" r="2.5"/>
	<circle fill="#005284" cx="-1367.748" cy="426.152" r="2.5"/>
	<circle fill="#005284" cx="-1357.748" cy="416.152" r="2.5"/>
	<circle fill="#005284" cx="-1357.748" cy="426.152" r="2.5"/>
	<circle fill="#005284" cx="-1347.748" cy="416.152" r="2.5"/>
	<circle fill="#005284" cx="-1347.748" cy="426.152" r="2.5"/>
	<circle fill="#005284" cx="-1337.748" cy="416.152" r="2.5"/>
	<circle fill="#005284" cx="-1337.748" cy="426.152" r="2.5"/>
	<circle fill="#005284" cx="-1327.03" cy="416.152" r="2.5"/>
	<circle fill="#005284" cx="-1327.03" cy="426.152" r="2.5"/>
	<circle fill="#005284" cx="-1317.03" cy="416.152" r="2.5"/>
	<circle fill="#005284" cx="-1317.03" cy="426.152" r="2.5"/>
	<circle fill="#005284" cx="-1306.684" cy="416.152" r="2.5"/>
	<circle fill="#005284" cx="-1306.684" cy="426.152" r="2.5"/>
	<circle fill="#005284" cx="-1296.684" cy="416.152" r="2.5"/>
	<circle fill="#005284" cx="-1296.684" cy="426.152" r="2.5"/>
	<circle fill="#005284" cx="-1285.965" cy="416.152" r="2.5"/>
	<circle fill="#005284" cx="-1285.965" cy="426.152" r="2.5"/>
	<circle fill="#005284" cx="-1275.965" cy="416.152" r="2.5"/>
	<circle fill="#005284" cx="-1275.965" cy="426.152" r="2.5"/>
	<circle fill="#005284" cx="-1265.965" cy="416.152" r="2.5"/>
	<circle fill="#005284" cx="-1265.965" cy="426.152" r="2.5"/>
	<circle fill="#005284" cx="-1255.965" cy="416.152" r="2.5"/>
	<circle fill="#005284" cx="-1255.965" cy="426.152" r="2.5"/>
	<circle fill="#005284" cx="-1245.248" cy="416.152" r="2.5"/>
	<circle fill="#005284" cx="-1245.248" cy="426.152" r="2.5"/>
	<circle fill="#005284" cx="-1235.248" cy="416.152" r="2.5"/>
	<circle fill="#005284" cx="-1235.248" cy="426.152" r="2.5"/>
	<circle fill="#005284" cx="-1388.426" cy="437.152" r="2.5"/>
	<circle fill="#005284" cx="-1388.426" cy="447.152" r="2.5"/>
	<circle fill="#005284" cx="-1378.426" cy="437.152" r="2.5"/>
	<circle fill="#005284" cx="-1378.426" cy="447.152" r="2.5"/>
	<circle fill="#005284" cx="-1367.708" cy="437.152" r="2.5"/>
	<circle fill="#005284" cx="-1367.708" cy="447.152" r="2.5"/>
	<circle fill="#005284" cx="-1357.708" cy="437.152" r="2.5"/>
	<circle fill="#005284" cx="-1357.708" cy="447.152" r="2.5"/>
	<circle fill="#005284" cx="-1347.708" cy="437.152" r="2.5"/>
	<circle fill="#005284" cx="-1347.708" cy="447.152" r="2.5"/>
	<circle fill="#005284" cx="-1337.708" cy="437.152" r="2.5"/>
	<circle fill="#005284" cx="-1337.708" cy="447.152" r="2.5"/>
	<circle fill="#005284" cx="-1326.99" cy="437.152" r="2.5"/>
	<circle fill="#005284" cx="-1326.99" cy="447.152" r="2.5"/>
	<circle fill="#005284" cx="-1316.99" cy="437.152" r="2.5"/>
	<circle fill="#005284" cx="-1316.99" cy="447.152" r="2.5"/>
	<circle fill="#005284" cx="-1306.643" cy="437.152" r="2.5"/>
	<circle fill="#005284" cx="-1306.643" cy="447.152" r="2.5"/>
	<circle fill="#005284" cx="-1296.643" cy="437.152" r="2.5"/>
	<circle fill="#005284" cx="-1296.643" cy="447.152" r="2.5"/>
	<circle fill="#005284" cx="-1285.926" cy="437.152" r="2.5"/>
	<circle fill="#005284" cx="-1285.926" cy="447.152" r="2.5"/>
	<circle fill="#005284" cx="-1275.926" cy="437.152" r="2.5"/>
	<circle fill="#005284" cx="-1275.926" cy="447.152" r="2.5"/>
	<circle fill="#005284" cx="-1265.926" cy="437.152" r="2.5"/>
	<circle fill="#005284" cx="-1265.926" cy="447.152" r="2.5"/>
	<circle fill="#005284" cx="-1255.926" cy="437.152" r="2.5"/>
	<circle fill="#005284" cx="-1255.926" cy="447.152" r="2.5"/>
	<circle fill="#005284" cx="-1245.207" cy="437.152" r="2.5"/>
	<circle fill="#005284" cx="-1245.207" cy="447.152" r="2.5"/>
	<circle fill="#005284" cx="-1235.207" cy="437.152" r="2.5"/>
	<circle fill="#005284" cx="-1235.207" cy="447.152" r="2.5"/>
	<circle fill="#005284" cx="-1389.119" cy="457.652" r="2.5"/>
	<circle fill="#005284" cx="-1389.119" cy="467.652" r="2.5"/>
	<circle fill="#005284" cx="-1379.119" cy="457.652" r="2.5"/>
	<circle fill="#005284" cx="-1379.119" cy="467.652" r="2.5"/>
	<circle fill="#005284" cx="-1368.401" cy="457.652" r="2.5"/>
	<circle fill="#005284" cx="-1368.401" cy="467.652" r="2.5"/>
	<circle fill="#005284" cx="-1358.401" cy="457.652" r="2.5"/>
	<circle fill="#005284" cx="-1358.401" cy="467.652" r="2.5"/>
	<circle fill="#005284" cx="-1348.401" cy="457.652" r="2.5"/>
	<circle fill="#005284" cx="-1348.401" cy="467.652" r="2.5"/>
	<circle fill="#005284" cx="-1338.401" cy="457.652" r="2.5"/>
	<circle fill="#005284" cx="-1338.401" cy="467.652" r="2.5"/>
	<circle fill="#005284" cx="-1327.684" cy="457.652" r="2.5"/>
	<circle fill="#005284" cx="-1327.684" cy="467.652" r="2.5"/>
	<circle fill="#005284" cx="-1317.684" cy="457.652" r="2.5"/>
	<circle fill="#005284" cx="-1317.684" cy="467.652" r="2.5"/>
	<circle fill="#005284" cx="-1307.336" cy="457.652" r="2.5"/>
	<circle fill="#005284" cx="-1307.336" cy="467.652" r="2.5"/>
	<circle fill="#005284" cx="-1297.336" cy="457.652" r="2.5"/>
	<circle fill="#005284" cx="-1297.336" cy="467.652" r="2.5"/>
	<circle fill="#005284" cx="-1286.619" cy="457.652" r="2.5"/>
	<circle fill="#005284" cx="-1286.619" cy="467.652" r="2.5"/>
	<circle fill="#005284" cx="-1276.619" cy="457.652" r="2.5"/>
	<circle fill="#005284" cx="-1276.619" cy="467.652" r="2.5"/>
	<circle fill="#005284" cx="-1266.619" cy="457.652" r="2.5"/>
	<circle fill="#005284" cx="-1266.619" cy="467.652" r="2.5"/>
	<circle fill="#005284" cx="-1256.619" cy="457.652" r="2.5"/>
	<circle fill="#005284" cx="-1256.619" cy="467.652" r="2.5"/>
	<circle fill="#005284" cx="-1245.9" cy="457.652" r="2.5"/>
	<circle fill="#005284" cx="-1245.9" cy="467.652" r="2.5"/>
	<circle fill="#005284" cx="-1235.9" cy="457.652" r="2.5"/>
	<circle fill="#005284" cx="-1235.9" cy="467.652" r="2.5"/>
</g>
<circle fill="#005284" cx="-1193" cy="252.326" r="8"/>
<circle fill="#005284" cx="-1161" cy="252.326" r="8"/>
<circle fill="#005284" cx="-1066" cy="252" r="8"/>
<circle fill="#005284" cx="-1129" cy="252.326" r="8"/>
<circle fill="#005284" cx="-1097" cy="252.326" r="8"/>
<path fill="#005284" d="M-1129,294c-22.091,0-40,17.908-40,40c0,22.091,17.909,40,40,40c22.092,0,40-17.909,40-40
	C-1089,311.908-1106.908,294-1129,294z M-1126.5,322.424h-5v-20h5V322.424z"/>
<rect x="-1149" y="408.152" fill="#005284" width="40" height="5"/>
<circle fill="#005284" cx="-1115" cy="410.652" r="10"/>
<circle fill="none" stroke="#005284" stroke-width="10" stroke-miterlimit="10" cx="-1153" cy="460.152" r="15"/>
<circle fill="none" stroke="#005284" stroke-width="10" stroke-miterlimit="10" cx="-1109" cy="460.152" r="15"/>
<path fill="none" stroke="#005284" stroke-width="5" stroke-miterlimit="10" d="M-1398,194c18.897,1.575,42.579-14.85,61.048-19.797
	c14.156-3.792,31.421-8.756,45.745-3.222c11.316,4.372,18.775,12.969,31.381,15.822c19.661,4.449,41.528,4.208,61.596,3.19
	c18.476-0.938,33.52-11.924,51.474-14.791c12.653-2.02,26.699,0.242,38.56,4.548c22.932,8.326,40.341,11.01,64.196,6.249"/>
<path fill="none" stroke="#005284" stroke-width="5" stroke-miterlimit="10" d="M-1400,146
	c11.585-1.486,25.313,13.393,32.696,19.975c7.413,6.609,15.806,12.691,24.48,18.552c36.259,24.497,79.556,17.747,116.801-1.456
	c23.405-12.067,65.521-44.656,91.852-28.724c15.936,9.642,25.822,20.474,44.829,23.379c8.234,1.258,22.138,3.47,30.459,1.096
	c5.285-1.508,9.721-6.369,13.883-8.822"/>
<path fill="none" stroke="#005284" stroke-width="5" stroke-miterlimit="10" d="M-1396,175c4.631-1.751,9.905-0.293,14.853-1.674
	c4.351-1.215,10.102-5.768,15.374-7.077c9.965-2.473,21.559-2.056,30.751,1.248c19.582,7.039,30.406,20.51,53.752,20.503
	c33.984-0.01,60.21-29.571,95.338-23.223c32.757,5.92,57.363,35.73,90.736,40.223c10.091,1.358,22.577,1.848,32.312-0.003
	c7.749-1.474,13.795-8.385,19.885-8.997"/>
<path fill="#FFFFFF" stroke="#000000" stroke-width="10" stroke-miterlimit="10" d="M-219,498.209c0,5.523-4.477,10-10,10h-380
	c-5.522,0-10-4.477-10-10v-380c0-5.522,4.478-10,10-10h380c5.523,0,10,4.478,10,10V498.209z"/>
<path fill="#FFFFFF" stroke="#000000" stroke-width="10" stroke-miterlimit="10" d="M-239,218.367c0,5.523-4.477,10-10,10h-340
	c-5.523,0-10-4.477-10-10v-80c0-5.523,4.477-10,10-10h340c5.523,0,10,4.477,10,10V218.367z"/>
<path fill="#FFFFFF" stroke="#000000" stroke-width="10" stroke-miterlimit="10" d="M-419,477.535c0,5.521-4.478,10-10,10h-160
	c-5.523,0-10-4.479-10-10v-220c0-5.522,4.477-10,10-10h160c5.522,0,10,4.478,10,10V477.535z"/>
<g>
	<circle cx="-584.139" cy="259.209" r="2.5"/>
	<circle cx="-584.139" cy="269.209" r="2.5"/>
	<circle cx="-574.139" cy="259.209" r="2.5"/>
	<circle cx="-574.139" cy="269.209" r="2.5"/>
	<circle cx="-563.421" cy="259.209" r="2.5"/>
	<circle cx="-563.421" cy="269.209" r="2.5"/>
	<circle cx="-553.421" cy="259.209" r="2.5"/>
	<circle cx="-553.421" cy="269.209" r="2.5"/>
	<circle cx="-543.421" cy="259.209" r="2.5"/>
	<circle cx="-543.421" cy="269.209" r="2.5"/>
	<circle cx="-533.421" cy="259.209" r="2.5"/>
	<circle cx="-533.421" cy="269.209" r="2.5"/>
	<circle cx="-522.703" cy="259.209" r="2.5"/>
	<circle cx="-522.703" cy="269.209" r="2.5"/>
	<circle cx="-512.703" cy="259.209" r="2.5"/>
	<circle cx="-512.703" cy="269.209" r="2.5"/>
	<circle cx="-502.356" cy="259.209" r="2.5"/>
	<circle cx="-502.356" cy="269.209" r="2.5"/>
	<circle cx="-492.356" cy="259.209" r="2.5"/>
	<circle cx="-492.356" cy="269.209" r="2.5"/>
	<circle cx="-481.639" cy="259.209" r="2.5"/>
	<circle cx="-481.639" cy="269.209" r="2.5"/>
	<circle cx="-471.639" cy="259.209" r="2.5"/>
	<circle cx="-471.639" cy="269.209" r="2.5"/>
	<circle cx="-461.639" cy="259.209" r="2.5"/>
	<circle cx="-461.639" cy="269.209" r="2.5"/>
	<circle cx="-451.639" cy="259.209" r="2.5"/>
	<circle cx="-451.639" cy="269.209" r="2.5"/>
	<circle cx="-440.921" cy="259.209" r="2.5"/>
	<circle cx="-440.921" cy="269.209" r="2.5"/>
	<circle cx="-430.921" cy="259.209" r="2.5"/>
	<circle cx="-430.921" cy="269.209" r="2.5"/>
	<circle cx="-584.099" cy="280.209" r="2.5"/>
	<circle cx="-584.099" cy="290.209" r="2.5"/>
	<circle cx="-574.099" cy="280.209" r="2.5"/>
	<circle cx="-574.099" cy="290.209" r="2.5"/>
	<circle cx="-563.381" cy="280.209" r="2.5"/>
	<circle cx="-563.381" cy="290.209" r="2.5"/>
	<circle cx="-553.381" cy="280.209" r="2.5"/>
	<circle cx="-553.381" cy="290.209" r="2.5"/>
	<circle cx="-543.381" cy="280.209" r="2.5"/>
	<circle cx="-543.381" cy="290.209" r="2.5"/>
	<circle cx="-533.381" cy="280.209" r="2.5"/>
	<circle cx="-533.381" cy="290.209" r="2.5"/>
	<circle cx="-522.663" cy="280.209" r="2.5"/>
	<circle cx="-522.663" cy="290.209" r="2.5"/>
	<circle cx="-512.663" cy="280.209" r="2.5"/>
	<circle cx="-512.663" cy="290.209" r="2.5"/>
	<circle cx="-502.316" cy="280.209" r="2.5"/>
	<circle cx="-502.316" cy="290.209" r="2.5"/>
	<circle cx="-492.316" cy="280.209" r="2.5"/>
	<circle cx="-492.316" cy="290.209" r="2.5"/>
	<circle cx="-481.599" cy="280.209" r="2.5"/>
	<circle cx="-481.599" cy="290.209" r="2.5"/>
	<circle cx="-471.599" cy="280.209" r="2.5"/>
	<circle cx="-471.599" cy="290.209" r="2.5"/>
	<circle cx="-461.599" cy="280.209" r="2.5"/>
	<circle cx="-461.599" cy="290.209" r="2.5"/>
	<circle cx="-451.599" cy="280.209" r="2.5"/>
	<circle cx="-451.599" cy="290.209" r="2.5"/>
	<circle cx="-440.881" cy="280.209" r="2.5"/>
	<circle cx="-440.881" cy="290.209" r="2.5"/>
	<circle cx="-430.881" cy="280.209" r="2.5"/>
	<circle cx="-430.881" cy="290.209" r="2.5"/>
	<circle cx="-584.792" cy="300.709" r="2.5"/>
	<circle cx="-584.792" cy="310.709" r="2.5"/>
	<circle cx="-574.792" cy="300.709" r="2.5"/>
	<circle cx="-574.792" cy="310.709" r="2.5"/>
	<circle cx="-564.074" cy="300.709" r="2.5"/>
	<circle cx="-564.074" cy="310.709" r="2.5"/>
	<circle cx="-554.074" cy="300.709" r="2.5"/>
	<circle cx="-554.074" cy="310.709" r="2.5"/>
	<circle cx="-544.074" cy="300.709" r="2.5"/>
	<circle cx="-544.074" cy="310.709" r="2.5"/>
	<circle cx="-534.074" cy="300.709" r="2.5"/>
	<circle cx="-534.074" cy="310.709" r="2.5"/>
	<circle cx="-523.356" cy="300.709" r="2.5"/>
	<circle cx="-523.356" cy="310.709" r="2.5"/>
	<circle cx="-513.356" cy="300.709" r="2.5"/>
	<circle cx="-513.356" cy="310.709" r="2.5"/>
	<circle cx="-503.01" cy="300.709" r="2.5"/>
	<circle cx="-503.01" cy="310.709" r="2.5"/>
	<circle cx="-493.01" cy="300.709" r="2.5"/>
	<circle cx="-493.01" cy="310.709" r="2.5"/>
	<circle cx="-482.292" cy="300.709" r="2.5"/>
	<circle cx="-482.292" cy="310.709" r="2.5"/>
	<circle cx="-472.292" cy="300.709" r="2.5"/>
	<circle cx="-472.292" cy="310.709" r="2.5"/>
	<circle cx="-462.292" cy="300.709" r="2.5"/>
	<circle cx="-462.292" cy="310.709" r="2.5"/>
	<circle cx="-452.292" cy="300.709" r="2.5"/>
	<circle cx="-452.292" cy="310.709" r="2.5"/>
	<circle cx="-441.574" cy="300.709" r="2.5"/>
	<circle cx="-441.574" cy="310.709" r="2.5"/>
	<circle cx="-431.574" cy="300.709" r="2.5"/>
	<circle cx="-431.574" cy="310.709" r="2.5"/>
	<circle cx="-584.752" cy="321.709" r="2.5"/>
	<circle cx="-584.752" cy="331.709" r="2.5"/>
	<circle cx="-574.752" cy="321.709" r="2.5"/>
	<circle cx="-574.752" cy="331.709" r="2.5"/>
	<circle cx="-564.034" cy="321.709" r="2.5"/>
	<circle cx="-564.034" cy="331.709" r="2.5"/>
	<circle cx="-554.034" cy="321.709" r="2.5"/>
	<circle cx="-554.034" cy="331.709" r="2.5"/>
	<circle cx="-544.034" cy="321.709" r="2.5"/>
	<circle cx="-544.034" cy="331.709" r="2.5"/>
	<circle cx="-534.034" cy="321.709" r="2.5"/>
	<circle cx="-534.034" cy="331.709" r="2.5"/>
	<circle cx="-523.316" cy="321.709" r="2.5"/>
	<circle cx="-523.316" cy="331.709" r="2.5"/>
	<circle cx="-513.316" cy="321.709" r="2.5"/>
	<circle cx="-513.316" cy="331.709" r="2.5"/>
	<circle cx="-502.97" cy="321.709" r="2.5"/>
	<circle cx="-502.97" cy="331.709" r="2.5"/>
	<circle cx="-492.97" cy="321.709" r="2.5"/>
	<circle cx="-492.97" cy="331.709" r="2.5"/>
	<circle cx="-482.252" cy="321.709" r="2.5"/>
	<circle cx="-482.252" cy="331.709" r="2.5"/>
	<circle cx="-472.252" cy="321.709" r="2.5"/>
	<circle cx="-472.252" cy="331.709" r="2.5"/>
	<circle cx="-462.252" cy="321.709" r="2.5"/>
	<circle cx="-462.252" cy="331.709" r="2.5"/>
	<circle cx="-452.252" cy="321.709" r="2.5"/>
	<circle cx="-452.252" cy="331.709" r="2.5"/>
	<circle cx="-441.534" cy="321.709" r="2.5"/>
	<circle cx="-441.534" cy="331.709" r="2.5"/>
	<circle cx="-431.534" cy="321.709" r="2.5"/>
	<circle cx="-431.534" cy="331.709" r="2.5"/>
	<circle cx="-585.466" cy="342.709" r="2.5"/>
	<circle cx="-585.466" cy="352.709" r="2.5"/>
	<circle cx="-575.466" cy="342.709" r="2.5"/>
	<circle cx="-575.466" cy="352.709" r="2.5"/>
	<circle cx="-564.748" cy="342.709" r="2.5"/>
	<circle cx="-564.748" cy="352.709" r="2.5"/>
	<circle cx="-554.748" cy="342.709" r="2.5"/>
	<circle cx="-554.748" cy="352.709" r="2.5"/>
	<circle cx="-544.748" cy="342.709" r="2.5"/>
	<circle cx="-544.748" cy="352.709" r="2.5"/>
	<circle cx="-534.748" cy="342.709" r="2.5"/>
	<circle cx="-534.748" cy="352.709" r="2.5"/>
	<circle cx="-524.03" cy="342.709" r="2.5"/>
	<circle cx="-524.03" cy="352.709" r="2.5"/>
	<circle cx="-514.03" cy="342.709" r="2.5"/>
	<circle cx="-514.03" cy="352.709" r="2.5"/>
	<circle cx="-503.684" cy="342.709" r="2.5"/>
	<circle cx="-503.684" cy="352.709" r="2.5"/>
	<circle cx="-493.684" cy="342.709" r="2.5"/>
	<circle cx="-493.684" cy="352.709" r="2.5"/>
	<circle cx="-482.966" cy="342.709" r="2.5"/>
	<circle cx="-482.966" cy="352.709" r="2.5"/>
	<circle cx="-472.966" cy="342.709" r="2.5"/>
	<circle cx="-472.966" cy="352.709" r="2.5"/>
	<circle cx="-462.966" cy="342.709" r="2.5"/>
	<circle cx="-462.966" cy="352.709" r="2.5"/>
	<circle cx="-452.966" cy="342.709" r="2.5"/>
	<circle cx="-452.966" cy="352.709" r="2.5"/>
	<circle cx="-442.248" cy="342.709" r="2.5"/>
	<circle cx="-442.248" cy="352.709" r="2.5"/>
	<circle cx="-432.248" cy="342.709" r="2.5"/>
	<circle cx="-432.248" cy="352.709" r="2.5"/>
	<circle cx="-585.426" cy="363.709" r="2.5"/>
	<circle cx="-585.426" cy="373.709" r="2.5"/>
	<circle cx="-575.426" cy="363.709" r="2.5"/>
	<circle cx="-575.426" cy="373.709" r="2.5"/>
	<circle cx="-564.708" cy="363.709" r="2.5"/>
	<circle cx="-564.708" cy="373.709" r="2.5"/>
	<circle cx="-554.708" cy="363.709" r="2.5"/>
	<circle cx="-554.708" cy="373.709" r="2.5"/>
	<circle cx="-544.708" cy="363.709" r="2.5"/>
	<circle cx="-544.708" cy="373.709" r="2.5"/>
	<circle cx="-534.708" cy="363.709" r="2.5"/>
	<circle cx="-534.708" cy="373.709" r="2.5"/>
	<circle cx="-523.99" cy="363.709" r="2.5"/>
	<circle cx="-523.99" cy="373.709" r="2.5"/>
	<circle cx="-513.99" cy="363.709" r="2.5"/>
	<circle cx="-513.99" cy="373.709" r="2.5"/>
	<circle cx="-503.644" cy="363.709" r="2.5"/>
	<circle cx="-503.644" cy="373.709" r="2.5"/>
	<circle cx="-493.644" cy="363.709" r="2.5"/>
	<circle cx="-493.644" cy="373.709" r="2.5"/>
	<circle cx="-482.926" cy="363.709" r="2.5"/>
	<circle cx="-482.926" cy="373.709" r="2.5"/>
	<circle cx="-472.926" cy="363.709" r="2.5"/>
	<circle cx="-472.926" cy="373.709" r="2.5"/>
	<circle cx="-462.926" cy="363.709" r="2.5"/>
	<circle cx="-462.926" cy="373.709" r="2.5"/>
	<circle cx="-452.926" cy="363.709" r="2.5"/>
	<circle cx="-452.926" cy="373.709" r="2.5"/>
	<circle cx="-442.208" cy="363.709" r="2.5"/>
	<circle cx="-442.208" cy="373.709" r="2.5"/>
	<circle cx="-432.208" cy="363.709" r="2.5"/>
	<circle cx="-432.208" cy="373.709" r="2.5"/>
	<circle cx="-586.119" cy="384.209" r="2.5"/>
	<circle cx="-586.119" cy="394.209" r="2.5"/>
	<circle cx="-576.119" cy="384.209" r="2.5"/>
	<circle cx="-576.119" cy="394.209" r="2.5"/>
	<circle cx="-565.401" cy="384.209" r="2.5"/>
	<circle cx="-565.401" cy="394.209" r="2.5"/>
	<circle cx="-555.401" cy="384.209" r="2.5"/>
	<circle cx="-555.401" cy="394.209" r="2.5"/>
	<circle cx="-545.401" cy="384.209" r="2.5"/>
	<circle cx="-545.401" cy="394.209" r="2.5"/>
	<circle cx="-535.401" cy="384.209" r="2.5"/>
	<circle cx="-535.401" cy="394.209" r="2.5"/>
	<circle cx="-524.684" cy="384.209" r="2.5"/>
	<circle cx="-524.684" cy="394.209" r="2.5"/>
	<circle cx="-514.684" cy="384.209" r="2.5"/>
	<circle cx="-514.684" cy="394.209" r="2.5"/>
	<circle cx="-504.337" cy="384.209" r="2.5"/>
	<circle cx="-504.337" cy="394.209" r="2.5"/>
	<circle cx="-494.337" cy="384.209" r="2.5"/>
	<circle cx="-494.337" cy="394.209" r="2.5"/>
	<circle cx="-483.619" cy="384.209" r="2.5"/>
	<circle cx="-483.619" cy="394.209" r="2.5"/>
	<circle cx="-473.619" cy="384.209" r="2.5"/>
	<circle cx="-473.619" cy="394.209" r="2.5"/>
	<circle cx="-463.619" cy="384.209" r="2.5"/>
	<circle cx="-463.619" cy="394.209" r="2.5"/>
	<circle cx="-453.619" cy="384.209" r="2.5"/>
	<circle cx="-453.619" cy="394.209" r="2.5"/>
	<circle cx="-442.901" cy="384.209" r="2.5"/>
	<circle cx="-442.901" cy="394.209" r="2.5"/>
	<circle cx="-432.901" cy="384.209" r="2.5"/>
	<circle cx="-432.901" cy="394.209" r="2.5"/>
	<circle cx="-586.079" cy="405.209" r="2.5"/>
	<circle cx="-586.079" cy="415.209" r="2.5"/>
	<circle cx="-576.079" cy="405.209" r="2.5"/>
	<circle cx="-576.079" cy="415.209" r="2.5"/>
	<circle cx="-565.361" cy="405.209" r="2.5"/>
	<circle cx="-565.361" cy="415.209" r="2.5"/>
	<circle cx="-555.361" cy="405.209" r="2.5"/>
	<circle cx="-555.361" cy="415.209" r="2.5"/>
	<circle cx="-545.361" cy="405.209" r="2.5"/>
	<circle cx="-545.361" cy="415.209" r="2.5"/>
	<circle cx="-535.361" cy="405.209" r="2.5"/>
	<circle cx="-535.361" cy="415.209" r="2.5"/>
	<circle cx="-524.644" cy="405.209" r="2.5"/>
	<circle cx="-524.644" cy="415.209" r="2.5"/>
	<circle cx="-514.644" cy="405.209" r="2.5"/>
	<circle cx="-514.644" cy="415.209" r="2.5"/>
	<circle cx="-504.297" cy="405.209" r="2.5"/>
	<circle cx="-504.297" cy="415.209" r="2.5"/>
	<circle cx="-494.297" cy="405.209" r="2.5"/>
	<circle cx="-494.297" cy="415.209" r="2.5"/>
	<circle cx="-483.579" cy="405.209" r="2.5"/>
	<circle cx="-483.579" cy="415.209" r="2.5"/>
	<circle cx="-473.579" cy="405.209" r="2.5"/>
	<circle cx="-473.579" cy="415.209" r="2.5"/>
	<circle cx="-463.579" cy="405.209" r="2.5"/>
	<circle cx="-463.579" cy="415.209" r="2.5"/>
	<circle cx="-453.579" cy="405.209" r="2.5"/>
	<circle cx="-453.579" cy="415.209" r="2.5"/>
	<circle cx="-442.861" cy="405.209" r="2.5"/>
	<circle cx="-442.861" cy="415.209" r="2.5"/>
	<circle cx="-432.861" cy="405.209" r="2.5"/>
	<circle cx="-432.861" cy="415.209" r="2.5"/>
	<circle cx="-586.466" cy="424.361" r="2.5"/>
	<circle cx="-586.466" cy="434.361" r="2.5"/>
	<circle cx="-576.466" cy="424.361" r="2.5"/>
	<circle cx="-576.466" cy="434.361" r="2.5"/>
	<circle cx="-565.748" cy="424.361" r="2.5"/>
	<circle cx="-565.748" cy="434.361" r="2.5"/>
	<circle cx="-555.748" cy="424.361" r="2.5"/>
	<circle cx="-555.748" cy="434.361" r="2.5"/>
	<circle cx="-545.748" cy="424.361" r="2.5"/>
	<circle cx="-545.748" cy="434.361" r="2.5"/>
	<circle cx="-535.748" cy="424.361" r="2.5"/>
	<circle cx="-535.748" cy="434.361" r="2.5"/>
	<circle cx="-525.03" cy="424.361" r="2.5"/>
	<circle cx="-525.03" cy="434.361" r="2.5"/>
	<circle cx="-515.03" cy="424.361" r="2.5"/>
	<circle cx="-515.03" cy="434.361" r="2.5"/>
	<circle cx="-504.684" cy="424.361" r="2.5"/>
	<circle cx="-504.684" cy="434.361" r="2.5"/>
	<circle cx="-494.684" cy="424.361" r="2.5"/>
	<circle cx="-494.684" cy="434.361" r="2.5"/>
	<circle cx="-483.965" cy="424.361" r="2.5"/>
	<circle cx="-483.965" cy="434.361" r="2.5"/>
	<circle cx="-473.965" cy="424.361" r="2.5"/>
	<circle cx="-473.965" cy="434.361" r="2.5"/>
	<circle cx="-463.965" cy="424.361" r="2.5"/>
	<circle cx="-463.965" cy="434.361" r="2.5"/>
	<circle cx="-453.965" cy="424.361" r="2.5"/>
	<circle cx="-453.965" cy="434.361" r="2.5"/>
	<circle cx="-443.248" cy="424.361" r="2.5"/>
	<circle cx="-443.248" cy="434.361" r="2.5"/>
	<circle cx="-433.248" cy="424.361" r="2.5"/>
	<circle cx="-433.248" cy="434.361" r="2.5"/>
	<circle cx="-586.426" cy="445.361" r="2.5"/>
	<circle cx="-586.426" cy="455.361" r="2.5"/>
	<circle cx="-576.426" cy="445.361" r="2.5"/>
	<circle cx="-576.426" cy="455.361" r="2.5"/>
	<circle cx="-565.708" cy="445.361" r="2.5"/>
	<circle cx="-565.708" cy="455.361" r="2.5"/>
	<circle cx="-555.708" cy="445.361" r="2.5"/>
	<circle cx="-555.708" cy="455.361" r="2.5"/>
	<circle cx="-545.708" cy="445.361" r="2.5"/>
	<circle cx="-545.708" cy="455.361" r="2.5"/>
	<circle cx="-535.708" cy="445.361" r="2.5"/>
	<circle cx="-535.708" cy="455.361" r="2.5"/>
	<circle cx="-524.99" cy="445.361" r="2.5"/>
	<circle cx="-524.99" cy="455.361" r="2.5"/>
	<circle cx="-514.99" cy="445.361" r="2.5"/>
	<circle cx="-514.99" cy="455.361" r="2.5"/>
	<circle cx="-504.643" cy="445.361" r="2.5"/>
	<circle cx="-504.643" cy="455.361" r="2.5"/>
	<circle cx="-494.643" cy="445.361" r="2.5"/>
	<circle cx="-494.643" cy="455.361" r="2.5"/>
	<circle cx="-483.926" cy="445.361" r="2.5"/>
	<circle cx="-483.926" cy="455.361" r="2.5"/>
	<circle cx="-473.926" cy="445.361" r="2.5"/>
	<circle cx="-473.926" cy="455.361" r="2.5"/>
	<circle cx="-463.926" cy="445.361" r="2.5"/>
	<circle cx="-463.926" cy="455.361" r="2.5"/>
	<circle cx="-453.926" cy="445.361" r="2.5"/>
	<circle cx="-453.926" cy="455.361" r="2.5"/>
	<circle cx="-443.207" cy="445.361" r="2.5"/>
	<circle cx="-443.207" cy="455.361" r="2.5"/>
	<circle cx="-433.207" cy="445.361" r="2.5"/>
	<circle cx="-433.207" cy="455.361" r="2.5"/>
	<circle cx="-587.119" cy="465.861" r="2.5"/>
	<circle cx="-587.119" cy="475.861" r="2.5"/>
	<circle cx="-577.119" cy="465.861" r="2.5"/>
	<circle cx="-577.119" cy="475.861" r="2.5"/>
	<circle cx="-566.401" cy="465.861" r="2.5"/>
	<circle cx="-566.401" cy="475.861" r="2.5"/>
	<circle cx="-556.401" cy="465.861" r="2.5"/>
	<circle cx="-556.401" cy="475.861" r="2.5"/>
	<circle cx="-546.401" cy="465.861" r="2.5"/>
	<circle cx="-546.401" cy="475.861" r="2.5"/>
	<circle cx="-536.401" cy="465.861" r="2.5"/>
	<circle cx="-536.401" cy="475.861" r="2.5"/>
	<circle cx="-525.684" cy="465.861" r="2.5"/>
	<circle cx="-525.684" cy="475.861" r="2.5"/>
	<circle cx="-515.684" cy="465.861" r="2.5"/>
	<circle cx="-515.684" cy="475.861" r="2.5"/>
	<circle cx="-505.336" cy="465.861" r="2.5"/>
	<circle cx="-505.336" cy="475.861" r="2.5"/>
	<circle cx="-495.336" cy="465.861" r="2.5"/>
	<circle cx="-495.336" cy="475.861" r="2.5"/>
	<circle cx="-484.619" cy="465.861" r="2.5"/>
	<circle cx="-484.619" cy="475.861" r="2.5"/>
	<circle cx="-474.619" cy="465.861" r="2.5"/>
	<circle cx="-474.619" cy="475.861" r="2.5"/>
	<circle cx="-464.619" cy="465.861" r="2.5"/>
	<circle cx="-464.619" cy="475.861" r="2.5"/>
	<circle cx="-454.619" cy="465.861" r="2.5"/>
	<circle cx="-454.619" cy="475.861" r="2.5"/>
	<circle cx="-443.9" cy="465.861" r="2.5"/>
	<circle cx="-443.9" cy="475.861" r="2.5"/>
	<circle cx="-433.9" cy="465.861" r="2.5"/>
	<circle cx="-433.9" cy="475.861" r="2.5"/>
</g>
<circle cx="-391" cy="260.535" r="8"/>
<circle cx="-359" cy="260.535" r="8"/>
<circle cx="-264" cy="260.209" r="8"/>
<circle cx="-327" cy="260.535" r="8"/>
<circle cx="-295" cy="260.535" r="8"/>
<path d="M-327,302.209c-22.091,0-40,17.908-40,40c0,22.091,17.909,40,40,40c22.092,0,40-17.909,40-40
	C-287,320.117-304.908,302.209-327,302.209z M-324.5,330.633h-5v-20h5V330.633z"/>
<rect x="-347" y="416.361" width="40" height="5"/>
<circle cx="-313" cy="418.861" r="10"/>
<circle fill="none" stroke="#000000" stroke-width="10" stroke-miterlimit="10" cx="-351" cy="468.361" r="15"/>
<circle fill="none" stroke="#000000" stroke-width="10" stroke-miterlimit="10" cx="-307" cy="468.361" r="15"/>
<path fill="none" stroke="#000000" stroke-width="5" stroke-miterlimit="10" d="M-596,202.209
	c18.896,1.575,42.578-14.85,61.049-19.797c14.156-3.792,31.421-8.756,45.744-3.222c11.316,4.372,18.775,12.969,31.381,15.822
	c19.661,4.449,41.528,4.208,61.597,3.19c18.476-0.938,33.52-11.924,51.474-14.791c12.653-2.02,26.699,0.242,38.56,4.548
	c22.932,8.326,40.341,11.01,64.196,6.249"/>
<path fill="none" stroke="#000000" stroke-width="5" stroke-miterlimit="10" d="M-598,154.209
	c11.586-1.486,25.312,13.393,32.695,19.975c7.414,6.609,15.807,12.691,24.48,18.552c36.26,24.497,79.557,17.747,116.801-1.456
	c23.405-12.067,65.521-44.656,91.853-28.724c15.936,9.642,25.822,20.474,44.829,23.379c8.234,1.258,22.138,3.47,30.459,1.096
	c5.285-1.508,9.721-6.369,13.883-8.822"/>
<path fill="none" stroke="#000000" stroke-width="5" stroke-miterlimit="10" d="M-594,183.209c4.631-1.751,9.905-0.293,14.853-1.674
	c4.351-1.215,10.102-5.768,15.374-7.077c9.965-2.473,21.559-2.056,30.75,1.248c19.582,7.039,30.406,20.51,53.753,20.503
	c33.984-0.01,60.21-29.571,95.338-23.223c32.757,5.92,57.363,35.73,90.736,40.223c10.091,1.358,22.577,1.848,32.312-0.004
	c7.749-1.474,13.795-8.385,19.885-8.996"/>
<path fill="none" stroke="#000000" stroke-width="10" stroke-miterlimit="10" d="M439,431.105c0,5.523-4.477,10-10,10H49
	c-5.522,0-10-4.477-10-10v-380c0-5.522,4.478-10,10-10h380c5.523,0,10,4.478,10,10V431.105z"/>
<path fill="none" stroke="#000000" stroke-width="10" stroke-miterlimit="10" d="M419,151.264c0,5.523-4.477,10-10,10H69
	c-5.523,0-10-4.477-10-10v-80c0-5.523,4.477-10,10-10h340c5.523,0,10,4.477,10,10V151.264z"/>
<path fill="none" stroke="#000000" stroke-width="10" stroke-miterlimit="10" d="M239,410.432c0,5.521-4.478,10-10,10H69
	c-5.523,0-10-4.479-10-10v-220c0-5.522,4.477-10,10-10h160c5.522,0,10,4.478,10,10V410.432z"/>
<g>
	<circle cx="73.861" cy="192.105" r="2.5"/>
	<circle cx="73.861" cy="202.105" r="2.5"/>
	<circle cx="83.861" cy="192.105" r="2.5"/>
	<circle cx="83.861" cy="202.105" r="2.5"/>
	<circle cx="94.579" cy="192.105" r="2.5"/>
	<circle cx="94.579" cy="202.105" r="2.5"/>
	<circle cx="104.579" cy="192.105" r="2.5"/>
	<circle cx="104.579" cy="202.105" r="2.5"/>
	<circle cx="114.579" cy="192.105" r="2.5"/>
	<circle cx="114.579" cy="202.105" r="2.5"/>
	<circle cx="124.579" cy="192.105" r="2.5"/>
	<circle cx="124.579" cy="202.105" r="2.5"/>
	<circle cx="135.297" cy="192.105" r="2.5"/>
	<circle cx="135.297" cy="202.105" r="2.5"/>
	<circle cx="145.297" cy="192.105" r="2.5"/>
	<circle cx="145.297" cy="202.105" r="2.5"/>
	<circle cx="155.644" cy="192.105" r="2.5"/>
	<circle cx="155.644" cy="202.105" r="2.5"/>
	<circle cx="165.644" cy="192.105" r="2.5"/>
	<circle cx="165.644" cy="202.105" r="2.5"/>
	<circle cx="176.361" cy="192.105" r="2.5"/>
	<circle cx="176.361" cy="202.105" r="2.5"/>
	<circle cx="186.361" cy="192.105" r="2.5"/>
	<circle cx="186.361" cy="202.105" r="2.5"/>
	<circle cx="196.361" cy="192.105" r="2.5"/>
	<circle cx="196.361" cy="202.105" r="2.5"/>
	<circle cx="206.361" cy="192.105" r="2.5"/>
	<circle cx="206.361" cy="202.105" r="2.5"/>
	<circle cx="217.079" cy="192.105" r="2.5"/>
	<circle cx="217.079" cy="202.105" r="2.5"/>
	<circle cx="227.079" cy="192.105" r="2.5"/>
	<circle cx="227.079" cy="202.105" r="2.5"/>
	<circle cx="73.901" cy="213.105" r="2.5"/>
	<circle cx="73.901" cy="223.105" r="2.5"/>
	<circle cx="83.901" cy="213.105" r="2.5"/>
	<circle cx="83.901" cy="223.105" r="2.5"/>
	<circle cx="94.619" cy="213.105" r="2.5"/>
	<circle cx="94.619" cy="223.105" r="2.5"/>
	<circle cx="104.619" cy="213.105" r="2.5"/>
	<circle cx="104.619" cy="223.105" r="2.5"/>
	<circle cx="114.619" cy="213.105" r="2.5"/>
	<circle cx="114.619" cy="223.105" r="2.5"/>
	<circle cx="124.619" cy="213.105" r="2.5"/>
	<circle cx="124.619" cy="223.105" r="2.5"/>
	<circle cx="135.337" cy="213.105" r="2.5"/>
	<circle cx="135.337" cy="223.105" r="2.5"/>
	<circle cx="145.337" cy="213.105" r="2.5"/>
	<circle cx="145.337" cy="223.105" r="2.5"/>
	<circle cx="155.684" cy="213.105" r="2.5"/>
	<circle cx="155.684" cy="223.105" r="2.5"/>
	<circle cx="165.684" cy="213.105" r="2.5"/>
	<circle cx="165.684" cy="223.105" r="2.5"/>
	<circle cx="176.401" cy="213.105" r="2.5"/>
	<circle cx="176.401" cy="223.105" r="2.5"/>
	<circle cx="186.401" cy="213.105" r="2.5"/>
	<circle cx="186.401" cy="223.105" r="2.5"/>
	<circle cx="196.401" cy="213.105" r="2.5"/>
	<circle cx="196.401" cy="223.105" r="2.5"/>
	<circle cx="206.401" cy="213.105" r="2.5"/>
	<circle cx="206.401" cy="223.105" r="2.5"/>
	<circle cx="217.119" cy="213.105" r="2.5"/>
	<circle cx="217.119" cy="223.105" r="2.5"/>
	<circle cx="227.119" cy="213.105" r="2.5"/>
	<circle cx="227.119" cy="223.105" r="2.5"/>
	<circle cx="73.208" cy="233.605" r="2.5"/>
	<circle cx="73.208" cy="243.605" r="2.5"/>
	<circle cx="83.208" cy="233.605" r="2.5"/>
	<circle cx="83.208" cy="243.605" r="2.5"/>
	<circle cx="93.926" cy="233.605" r="2.5"/>
	<circle cx="93.926" cy="243.605" r="2.5"/>
	<circle cx="103.926" cy="233.605" r="2.5"/>
	<circle cx="103.926" cy="243.605" r="2.5"/>
	<circle cx="113.926" cy="233.605" r="2.5"/>
	<circle cx="113.926" cy="243.605" r="2.5"/>
	<circle cx="123.926" cy="233.605" r="2.5"/>
	<circle cx="123.926" cy="243.605" r="2.5"/>
	<circle cx="134.644" cy="233.605" r="2.5"/>
	<circle cx="134.644" cy="243.605" r="2.5"/>
	<circle cx="144.644" cy="233.605" r="2.5"/>
	<circle cx="144.644" cy="243.605" r="2.5"/>
	<circle cx="154.99" cy="233.605" r="2.5"/>
	<circle cx="154.99" cy="243.605" r="2.5"/>
	<circle cx="164.99" cy="233.605" r="2.5"/>
	<circle cx="164.99" cy="243.605" r="2.5"/>
	<circle cx="175.708" cy="233.605" r="2.5"/>
	<circle cx="175.708" cy="243.605" r="2.5"/>
	<circle cx="185.708" cy="233.605" r="2.5"/>
	<circle cx="185.708" cy="243.605" r="2.5"/>
	<circle cx="195.708" cy="233.605" r="2.5"/>
	<circle cx="195.708" cy="243.605" r="2.5"/>
	<circle cx="205.708" cy="233.605" r="2.5"/>
	<circle cx="205.708" cy="243.605" r="2.5"/>
	<circle cx="216.426" cy="233.605" r="2.5"/>
	<circle cx="216.426" cy="243.605" r="2.5"/>
	<circle cx="226.426" cy="233.605" r="2.5"/>
	<circle cx="226.426" cy="243.605" r="2.5"/>
	<circle cx="73.248" cy="254.605" r="2.5"/>
	<circle cx="73.248" cy="264.605" r="2.5"/>
	<circle cx="83.248" cy="254.605" r="2.5"/>
	<circle cx="83.248" cy="264.605" r="2.5"/>
	<circle cx="93.966" cy="254.605" r="2.5"/>
	<circle cx="93.966" cy="264.605" r="2.5"/>
	<circle cx="103.966" cy="254.605" r="2.5"/>
	<circle cx="103.966" cy="264.605" r="2.5"/>
	<circle cx="113.966" cy="254.605" r="2.5"/>
	<circle cx="113.966" cy="264.605" r="2.5"/>
	<circle cx="123.966" cy="254.605" r="2.5"/>
	<circle cx="123.966" cy="264.605" r="2.5"/>
	<circle cx="134.684" cy="254.605" r="2.5"/>
	<circle cx="134.684" cy="264.605" r="2.5"/>
	<circle cx="144.684" cy="254.605" r="2.5"/>
	<circle cx="144.684" cy="264.605" r="2.5"/>
	<circle cx="155.03" cy="254.605" r="2.5"/>
	<circle cx="155.03" cy="264.605" r="2.5"/>
	<circle cx="165.03" cy="254.605" r="2.5"/>
	<circle cx="165.03" cy="264.605" r="2.5"/>
	<circle cx="175.748" cy="254.605" r="2.5"/>
	<circle cx="175.748" cy="264.605" r="2.5"/>
	<circle cx="185.748" cy="254.605" r="2.5"/>
	<circle cx="185.748" cy="264.605" r="2.5"/>
	<circle cx="195.748" cy="254.605" r="2.5"/>
	<circle cx="195.748" cy="264.605" r="2.5"/>
	<circle cx="205.748" cy="254.605" r="2.5"/>
	<circle cx="205.748" cy="264.605" r="2.5"/>
	<circle cx="216.466" cy="254.605" r="2.5"/>
	<circle cx="216.466" cy="264.605" r="2.5"/>
	<circle cx="226.466" cy="254.605" r="2.5"/>
	<circle cx="226.466" cy="264.605" r="2.5"/>
	<circle cx="72.534" cy="275.605" r="2.5"/>
	<circle cx="72.534" cy="285.605" r="2.5"/>
	<circle cx="82.534" cy="275.605" r="2.5"/>
	<circle cx="82.534" cy="285.605" r="2.5"/>
	<circle cx="93.252" cy="275.605" r="2.5"/>
	<circle cx="93.252" cy="285.605" r="2.5"/>
	<circle cx="103.252" cy="275.605" r="2.5"/>
	<circle cx="103.252" cy="285.605" r="2.5"/>
	<circle cx="113.252" cy="275.605" r="2.5"/>
	<circle cx="113.252" cy="285.605" r="2.5"/>
	<circle cx="123.252" cy="275.605" r="2.5"/>
	<circle cx="123.252" cy="285.605" r="2.5"/>
	<circle cx="133.97" cy="275.605" r="2.5"/>
	<circle cx="133.97" cy="285.605" r="2.5"/>
	<circle cx="143.97" cy="275.605" r="2.5"/>
	<circle cx="143.97" cy="285.605" r="2.5"/>
	<circle cx="154.316" cy="275.605" r="2.5"/>
	<circle cx="154.316" cy="285.605" r="2.5"/>
	<circle cx="164.316" cy="275.605" r="2.5"/>
	<circle cx="164.316" cy="285.605" r="2.5"/>
	<circle cx="175.034" cy="275.605" r="2.5"/>
	<circle cx="175.034" cy="285.605" r="2.5"/>
	<circle cx="185.034" cy="275.605" r="2.5"/>
	<circle cx="185.034" cy="285.605" r="2.5"/>
	<circle cx="195.034" cy="275.605" r="2.5"/>
	<circle cx="195.034" cy="285.605" r="2.5"/>
	<circle cx="205.034" cy="275.605" r="2.5"/>
	<circle cx="205.034" cy="285.605" r="2.5"/>
	<circle cx="215.752" cy="275.605" r="2.5"/>
	<circle cx="215.752" cy="285.605" r="2.5"/>
	<circle cx="225.752" cy="275.605" r="2.5"/>
	<circle cx="225.752" cy="285.605" r="2.5"/>
	<circle cx="72.574" cy="296.605" r="2.5"/>
	<circle cx="72.574" cy="306.605" r="2.5"/>
	<circle cx="82.574" cy="296.605" r="2.5"/>
	<circle cx="82.574" cy="306.605" r="2.5"/>
	<circle cx="93.292" cy="296.605" r="2.5"/>
	<circle cx="93.292" cy="306.605" r="2.5"/>
	<circle cx="103.292" cy="296.605" r="2.5"/>
	<circle cx="103.292" cy="306.605" r="2.5"/>
	<circle cx="113.292" cy="296.605" r="2.5"/>
	<circle cx="113.292" cy="306.605" r="2.5"/>
	<circle cx="123.292" cy="296.605" r="2.5"/>
	<circle cx="123.292" cy="306.605" r="2.5"/>
	<circle cx="134.01" cy="296.605" r="2.5"/>
	<circle cx="134.01" cy="306.605" r="2.5"/>
	<circle cx="144.01" cy="296.605" r="2.5"/>
	<circle cx="144.01" cy="306.605" r="2.5"/>
	<circle cx="154.356" cy="296.605" r="2.5"/>
	<circle cx="154.356" cy="306.605" r="2.5"/>
	<circle cx="164.356" cy="296.605" r="2.5"/>
	<circle cx="164.356" cy="306.605" r="2.5"/>
	<circle cx="175.074" cy="296.605" r="2.5"/>
	<circle cx="175.074" cy="306.605" r="2.5"/>
	<circle cx="185.074" cy="296.605" r="2.5"/>
	<circle cx="185.074" cy="306.605" r="2.5"/>
	<circle cx="195.074" cy="296.605" r="2.5"/>
	<circle cx="195.074" cy="306.605" r="2.5"/>
	<circle cx="205.074" cy="296.605" r="2.5"/>
	<circle cx="205.074" cy="306.605" r="2.5"/>
	<circle cx="215.792" cy="296.605" r="2.5"/>
	<circle cx="215.792" cy="306.605" r="2.5"/>
	<circle cx="225.792" cy="296.605" r="2.5"/>
	<circle cx="225.792" cy="306.605" r="2.5"/>
	<circle cx="71.881" cy="317.105" r="2.5"/>
	<circle cx="71.881" cy="327.105" r="2.5"/>
	<circle cx="81.881" cy="317.105" r="2.5"/>
	<circle cx="81.881" cy="327.105" r="2.5"/>
	<circle cx="92.599" cy="317.105" r="2.5"/>
	<circle cx="92.599" cy="327.105" r="2.5"/>
	<circle cx="102.599" cy="317.105" r="2.5"/>
	<circle cx="102.599" cy="327.105" r="2.5"/>
	<circle cx="112.599" cy="317.105" r="2.5"/>
	<circle cx="112.599" cy="327.105" r="2.5"/>
	<circle cx="122.599" cy="317.105" r="2.5"/>
	<circle cx="122.599" cy="327.105" r="2.5"/>
	<circle cx="133.316" cy="317.105" r="2.5"/>
	<circle cx="133.316" cy="327.105" r="2.5"/>
	<circle cx="143.316" cy="317.105" r="2.5"/>
	<circle cx="143.316" cy="327.105" r="2.5"/>
	<circle cx="153.663" cy="317.105" r="2.5"/>
	<circle cx="153.663" cy="327.105" r="2.5"/>
	<circle cx="163.663" cy="317.105" r="2.5"/>
	<circle cx="163.663" cy="327.105" r="2.5"/>
	<circle cx="174.381" cy="317.105" r="2.5"/>
	<circle cx="174.381" cy="327.105" r="2.5"/>
	<circle cx="184.381" cy="317.105" r="2.5"/>
	<circle cx="184.381" cy="327.105" r="2.5"/>
	<circle cx="194.381" cy="317.105" r="2.5"/>
	<circle cx="194.381" cy="327.105" r="2.5"/>
	<circle cx="204.381" cy="317.105" r="2.5"/>
	<circle cx="204.381" cy="327.105" r="2.5"/>
	<circle cx="215.099" cy="317.105" r="2.5"/>
	<circle cx="215.099" cy="327.105" r="2.5"/>
	<circle cx="225.099" cy="317.105" r="2.5"/>
	<circle cx="225.099" cy="327.105" r="2.5"/>
	<circle cx="71.921" cy="338.105" r="2.5"/>
	<circle cx="71.921" cy="348.105" r="2.5"/>
	<circle cx="81.921" cy="338.105" r="2.5"/>
	<circle cx="81.921" cy="348.105" r="2.5"/>
	<circle cx="92.639" cy="338.105" r="2.5"/>
	<circle cx="92.639" cy="348.105" r="2.5"/>
	<circle cx="102.639" cy="338.105" r="2.5"/>
	<circle cx="102.639" cy="348.105" r="2.5"/>
	<circle cx="112.639" cy="338.105" r="2.5"/>
	<circle cx="112.639" cy="348.105" r="2.5"/>
	<circle cx="122.639" cy="338.105" r="2.5"/>
	<circle cx="122.639" cy="348.105" r="2.5"/>
	<circle cx="133.356" cy="338.105" r="2.5"/>
	<circle cx="133.356" cy="348.105" r="2.5"/>
	<circle cx="143.356" cy="338.105" r="2.5"/>
	<circle cx="143.356" cy="348.105" r="2.5"/>
	<circle cx="153.703" cy="338.105" r="2.5"/>
	<circle cx="153.703" cy="348.105" r="2.5"/>
	<circle cx="163.703" cy="338.105" r="2.5"/>
	<circle cx="163.703" cy="348.105" r="2.5"/>
	<circle cx="174.421" cy="338.105" r="2.5"/>
	<circle cx="174.421" cy="348.105" r="2.5"/>
	<circle cx="184.421" cy="338.105" r="2.5"/>
	<circle cx="184.421" cy="348.105" r="2.5"/>
	<circle cx="194.421" cy="338.105" r="2.5"/>
	<circle cx="194.421" cy="348.105" r="2.5"/>
	<circle cx="204.421" cy="338.105" r="2.5"/>
	<circle cx="204.421" cy="348.105" r="2.5"/>
	<circle cx="215.139" cy="338.105" r="2.5"/>
	<circle cx="215.139" cy="348.105" r="2.5"/>
	<circle cx="225.139" cy="338.105" r="2.5"/>
	<circle cx="225.139" cy="348.105" r="2.5"/>
	<circle cx="71.534" cy="357.258" r="2.5"/>
	<circle cx="71.534" cy="367.258" r="2.5"/>
	<circle cx="81.534" cy="357.258" r="2.5"/>
	<circle cx="81.534" cy="367.258" r="2.5"/>
	<circle cx="92.252" cy="357.258" r="2.5"/>
	<circle cx="92.252" cy="367.258" r="2.5"/>
	<circle cx="102.252" cy="357.258" r="2.5"/>
	<circle cx="102.252" cy="367.258" r="2.5"/>
	<circle cx="112.252" cy="357.258" r="2.5"/>
	<circle cx="112.252" cy="367.258" r="2.5"/>
	<circle cx="122.252" cy="357.258" r="2.5"/>
	<circle cx="122.252" cy="367.258" r="2.5"/>
	<circle cx="132.97" cy="357.258" r="2.5"/>
	<circle cx="132.97" cy="367.258" r="2.5"/>
	<circle cx="142.97" cy="357.258" r="2.5"/>
	<circle cx="142.97" cy="367.258" r="2.5"/>
	<circle cx="153.316" cy="357.258" r="2.5"/>
	<circle cx="153.316" cy="367.258" r="2.5"/>
	<circle cx="163.316" cy="357.258" r="2.5"/>
	<circle cx="163.316" cy="367.258" r="2.5"/>
	<circle cx="174.035" cy="357.258" r="2.5"/>
	<circle cx="174.035" cy="367.258" r="2.5"/>
	<circle cx="184.035" cy="357.258" r="2.5"/>
	<circle cx="184.035" cy="367.258" r="2.5"/>
	<circle cx="194.035" cy="357.258" r="2.5"/>
	<circle cx="194.035" cy="367.258" r="2.5"/>
	<circle cx="204.035" cy="357.258" r="2.5"/>
	<circle cx="204.035" cy="367.258" r="2.5"/>
	<circle cx="214.752" cy="357.258" r="2.5"/>
	<circle cx="214.752" cy="367.258" r="2.5"/>
	<circle cx="224.752" cy="357.258" r="2.5"/>
	<circle cx="224.752" cy="367.258" r="2.5"/>
	<circle cx="71.574" cy="378.258" r="2.5"/>
	<circle cx="71.574" cy="388.258" r="2.5"/>
	<circle cx="81.574" cy="378.258" r="2.5"/>
	<circle cx="81.574" cy="388.258" r="2.5"/>
	<circle cx="92.292" cy="378.258" r="2.5"/>
	<circle cx="92.292" cy="388.258" r="2.5"/>
	<circle cx="102.292" cy="378.258" r="2.5"/>
	<circle cx="102.292" cy="388.258" r="2.5"/>
	<circle cx="112.292" cy="378.258" r="2.5"/>
	<circle cx="112.292" cy="388.258" r="2.5"/>
	<circle cx="122.292" cy="378.258" r="2.5"/>
	<circle cx="122.292" cy="388.258" r="2.5"/>
	<circle cx="133.01" cy="378.258" r="2.5"/>
	<circle cx="133.01" cy="388.258" r="2.5"/>
	<circle cx="143.01" cy="378.258" r="2.5"/>
	<circle cx="143.01" cy="388.258" r="2.5"/>
	<circle cx="153.357" cy="378.258" r="2.5"/>
	<circle cx="153.357" cy="388.258" r="2.5"/>
	<circle cx="163.357" cy="378.258" r="2.5"/>
	<circle cx="163.357" cy="388.258" r="2.5"/>
	<circle cx="174.074" cy="378.258" r="2.5"/>
	<circle cx="174.074" cy="388.258" r="2.5"/>
	<circle cx="184.074" cy="378.258" r="2.5"/>
	<circle cx="184.074" cy="388.258" r="2.5"/>
	<circle cx="194.074" cy="378.258" r="2.5"/>
	<circle cx="194.074" cy="388.258" r="2.5"/>
	<circle cx="204.074" cy="378.258" r="2.5"/>
	<circle cx="204.074" cy="388.258" r="2.5"/>
	<circle cx="214.793" cy="378.258" r="2.5"/>
	<circle cx="214.793" cy="388.258" r="2.5"/>
	<circle cx="224.793" cy="378.258" r="2.5"/>
	<circle cx="224.793" cy="388.258" r="2.5"/>
	<circle cx="70.881" cy="398.758" r="2.5"/>
	<circle cx="70.881" cy="408.758" r="2.5"/>
	<circle cx="80.881" cy="398.758" r="2.5"/>
	<circle cx="80.881" cy="408.758" r="2.5"/>
	<circle cx="91.599" cy="398.758" r="2.5"/>
	<circle cx="91.599" cy="408.758" r="2.5"/>
	<circle cx="101.599" cy="398.758" r="2.5"/>
	<circle cx="101.599" cy="408.758" r="2.5"/>
	<circle cx="111.599" cy="398.758" r="2.5"/>
	<circle cx="111.599" cy="408.758" r="2.5"/>
	<circle cx="121.599" cy="398.758" r="2.5"/>
	<circle cx="121.599" cy="408.758" r="2.5"/>
	<circle cx="132.316" cy="398.758" r="2.5"/>
	<circle cx="132.316" cy="408.758" r="2.5"/>
	<circle cx="142.316" cy="398.758" r="2.5"/>
	<circle cx="142.316" cy="408.758" r="2.5"/>
	<circle cx="152.664" cy="398.758" r="2.5"/>
	<circle cx="152.664" cy="408.758" r="2.5"/>
	<circle cx="162.664" cy="398.758" r="2.5"/>
	<circle cx="162.664" cy="408.758" r="2.5"/>
	<circle cx="173.381" cy="398.758" r="2.5"/>
	<circle cx="173.381" cy="408.758" r="2.5"/>
	<circle cx="183.381" cy="398.758" r="2.5"/>
	<circle cx="183.381" cy="408.758" r="2.5"/>
	<circle cx="193.381" cy="398.758" r="2.5"/>
	<circle cx="193.381" cy="408.758" r="2.5"/>
	<circle cx="203.381" cy="398.758" r="2.5"/>
	<circle cx="203.381" cy="408.758" r="2.5"/>
	<circle cx="214.1" cy="398.758" r="2.5"/>
	<circle cx="214.1" cy="408.758" r="2.5"/>
	<circle cx="224.1" cy="398.758" r="2.5"/>
	<circle cx="224.1" cy="408.758" r="2.5"/>
</g>
<circle cx="267" cy="193.432" r="8"/>
<circle cx="299" cy="193.432" r="8"/>
<circle cx="394" cy="193.105" r="8"/>
<circle cx="331" cy="193.432" r="8"/>
<circle cx="363" cy="193.432" r="8"/>
<path d="M331,235.105c-22.091,0-40,17.908-40,40c0,22.091,17.909,40,40,40c22.092,0,40-17.909,40-40
	C371,253.014,353.092,235.105,331,235.105z M333.5,263.529h-5v-20h5V263.529z"/>
<rect x="311" y="349.258" width="40" height="5"/>
<circle cx="345" cy="351.758" r="10"/>
<circle fill="none" stroke="#000000" stroke-width="10" stroke-miterlimit="10" cx="307" cy="401.258" r="15"/>
<circle fill="none" stroke="#000000" stroke-width="10" stroke-miterlimit="10" cx="351" cy="401.258" r="15"/>
<path fill="none" stroke="#000000" stroke-width="5" stroke-miterlimit="10" d="M62,135.105
	c18.896,1.575,42.578-14.85,61.049-19.797c14.156-3.792,31.421-8.756,45.744-3.222c11.316,4.372,18.775,12.969,31.381,15.822
	c19.661,4.449,41.528,4.208,61.597,3.19c18.476-0.938,33.52-11.924,51.474-14.791c12.653-2.02,26.699,0.242,38.56,4.548
	c22.932,8.326,40.341,11.01,64.196,6.249"/>
<path fill="none" stroke="#000000" stroke-width="5" stroke-miterlimit="10" d="M60,87.105
	c11.586-1.486,25.312,13.393,32.695,19.975c7.414,6.609,15.807,12.691,24.48,18.552c36.26,24.497,79.557,17.747,116.801-1.456
	c23.405-12.067,65.521-44.656,91.853-28.724c15.936,9.642,25.822,20.474,44.829,23.379c8.234,1.258,22.138,3.47,30.459,1.096
	c5.285-1.508,9.721-6.369,13.883-8.822"/>
<path fill="none" stroke="#000000" stroke-width="5" stroke-miterlimit="10" d="M64,116.105c4.631-1.751,9.905-0.293,14.853-1.674
	c4.351-1.215,10.102-5.768,15.374-7.077c9.965-2.473,21.559-2.056,30.75,1.248c19.582,7.039,30.406,20.51,53.753,20.503
	c33.984-0.01,60.21-29.571,95.338-23.223c32.757,5.92,57.363,35.73,90.736,40.223c10.091,1.358,22.577,1.848,32.312-0.004
	c7.749-1.474,13.795-8.385,19.885-8.996"/>
</svg>
